<?xml version="1.0" standalone="no"?>
<!DOCTYPE svg PUBLIC "-//W3C//DTD SVG 20010904//EN"
 "http://www.w3.org/TR/2001/REC-SVG-20010904/DTD/svg10.dtd">
<svg version="1.0" xmlns="http://www.w3.org/2000/svg"
 width="274.000000pt" height="335.000000pt" viewBox="0 0 274.000000 335.000000"
 preserveAspectRatio="xMidYMid meet">
<metadata>
Created by potrace 1.16, written by Peter Selinger 2001-2019
</metadata>
<g transform="translate(0.000000,335.000000) scale(0.100000,-0.100000)"
fill="#000000" stroke="none">
<path d="M0 1675 l0 -1675 884 0 c698 0 885 3 889 13 4 9 6 9 6 0 1 -7 11 -13
22 -13 21 0 20 1 -6 26 -19 18 -24 28 -16 33 15 10 71 1 71 -10 0 -5 6 -9 13
-9 7 0 17 -8 24 -19 9 -15 25 -18 92 -19 46 0 79 4 75 9 -3 5 7 10 23 10 17 1
21 3 11 6 -22 5 -24 29 -3 37 9 3 19 -3 25 -14 6 -11 7 -20 3 -20 -9 -1 39
-29 49 -30 4 0 2 11 -4 25 -6 14 -15 25 -20 25 -4 0 -8 4 -8 10 0 5 17 8 37 7
29 -2 40 -8 53 -32 9 -17 25 -31 36 -33 16 -2 15 0 -6 19 -20 18 -21 21 -5 14
11 -4 30 -10 42 -12 13 -3 20 -9 17 -14 -3 -5 90 -9 215 -9 l221 0 0 1675 0
1675 -1370 0 -1370 0 0 -1675z m395 1534 c-8 -23 -15 -44 -15 -48 0 -3 78 -6
173 -6 140 0 171 -3 169 -14 -2 -8 3 -11 13 -8 9 4 15 1 15 -8 0 -13 -24 -15
-145 -15 l-145 0 0 -72 0 -73 104 0 104 -1 4 27 c3 20 0 27 -12 26 -23 -1
-113 24 -125 36 -7 7 -4 8 8 3 10 -3 61 -6 113 -6 l94 0 0 -50 c0 -33 -4 -50
-12 -50 -10 0 -9 -3 1 -9 17 -11 -3 -25 -24 -17 -8 3 -15 1 -15 -4 0 -14 -248
-11 -290 3 -32 11 -35 16 -41 62 -3 28 -7 46 -7 41 -1 -6 -13 5 -27 24 l-25
34 6 -52 c4 -40 2 -56 -10 -68 -9 -9 -14 -20 -11 -25 4 -5 -1 -6 -9 -3 -9 4
-16 1 -16 -6 0 -7 -7 -10 -14 -7 -9 4 -17 -2 -21 -14 -15 -45 -20 -11 -19 119
1 75 3 142 4 147 1 6 2 13 1 18 -2 12 27 8 39 -5 6 -7 19 -24 30 -37 l20 -24
20 23 c13 15 20 18 20 9 1 -8 12 10 26 39 31 62 39 67 19 11z m529 -64 c-5
-11 -2 -13 10 -9 9 3 13 10 10 15 -3 5 2 9 10 9 9 0 13 -7 11 -20 -2 -11 0
-20 5 -20 5 0 12 9 15 20 5 16 15 20 50 20 34 0 42 -4 41 -16 0 -9 5 -19 12
-21 7 -3 12 -1 11 4 -4 21 2 33 16 33 9 0 15 -9 15 -25 l0 -25 -115 2 c-63 0
-117 -1 -119 -3 -2 -2 -5 -35 -7 -74 l-4 -70 48 1 c26 1 47 -3 47 -8 0 -7 5
-7 13 -1 11 8 30 8 115 4 17 -1 22 -7 22 -26 0 -23 -3 -25 -50 -25 -33 0 -50
4 -50 13 0 9 -2 9 -8 0 -5 -8 -43 -12 -115 -12 l-107 -1 0 119 c0 65 3 121 7
124 3 4 32 7 64 7 48 0 57 -3 53 -15z m526 -35 c34 -40 40 -53 31 -64 -10 -12
-9 -13 7 -10 25 7 52 -24 32 -36 -18 -11 -21 -50 -3 -43 10 4 11 9 3 18 -8 9
-6 14 4 18 10 4 26 -8 46 -32 16 -22 30 -42 30 -45 0 -3 -20 -6 -44 -6 -37 0
-48 5 -64 28 -20 26 -23 27 -101 24 -57 -2 -81 0 -81 8 0 7 6 10 14 7 8 -3 13
1 12 11 -1 14 8 17 47 17 26 0 47 5 47 10 -1 6 -13 25 -29 43 l-28 32 -44 -65
c-24 -35 -48 -65 -52 -65 -5 0 -6 4 -3 9 4 5 -3 7 -14 4 -18 -5 -18 -7 -5 -17
25 -19 2 -37 -54 -41 l-52 -5 57 73 c31 39 75 96 98 125 34 43 46 52 72 52 26
0 40 -9 74 -50z m487 35 c18 -12 22 -25 21 -65 0 -54 -3 -59 -42 -62 -33 -3
-32 -7 0 -33 15 -12 28 -33 30 -48 5 -45 -31 -33 -135 46 l-96 72 83 3 c79 3
83 4 80 25 -3 20 -9 22 -85 24 l-82 2 -3 -97 -3 -97 -42 -3 -41 -3 -1 125 -1
126 148 0 c116 0 152 -3 169 -15z m324 3 c0 -10 2 -10 6 0 10 25 103 6 103
-22 0 -7 -10 -16 -22 -19 -24 -6 -84 -1 -98 8 -5 3 -11 1 -14 -3 -3 -5 -33 -8
-66 -7 -57 2 -60 1 -60 -21 0 -24 1 -24 114 -24 63 0 121 -3 130 -6 20 -8 23
-118 4 -130 -7 -4 -79 -9 -161 -11 -151 -4 -177 1 -177 34 0 11 17 14 88 13
164 -2 169 -2 175 20 6 24 -6 33 -44 32 -15 0 -30 6 -33 14 -3 8 -11 14 -17
14 -8 0 -8 -4 1 -15 12 -14 3 -16 -76 -13 -84 3 -89 4 -92 26 -2 13 2 30 8 38
9 10 9 14 1 14 -22 0 -12 50 12 60 36 14 217 12 218 -2z m239 -52 c5 -14 6
-26 2 -26 -13 0 -12 -44 1 -52 9 -6 9 -8 0 -8 -7 0 -10 -9 -8 -22 3 -12 1 -26
-4 -32 -5 -6 -12 -25 -15 -43 -7 -28 -29 -49 -48 -45 -5 1 -8 -6 -8 -15 0 -14
-2 -15 -9 -4 -9 14 -9 24 2 51 11 31 15 60 6 54 -5 -3 -9 7 -10 23 0 25 -1 26
-10 8 -6 -14 -8 -1 -4 43 2 34 9 70 14 80 6 9 11 13 11 9 0 -4 10 1 21 12 18
17 24 18 35 6 8 -7 18 -25 24 -39z m-2165 -249 l6 -42 15 30 c13 27 14 28 10
5 -2 -14 -7 -33 -11 -43 -6 -13 -4 -16 9 -11 9 3 13 11 9 17 -4 6 -1 7 7 2 8
-5 10 -20 6 -46 -4 -23 -2 -40 5 -45 8 -4 9 1 4 17 -9 28 -3 24 15 -10 7 -15
8 -21 1 -17 -7 5 -9 -3 -5 -24 4 -19 2 -30 -5 -30 -6 0 -11 -9 -11 -21 0 -35
-20 -10 -27 34 -6 36 -8 39 -13 17 -3 -14 -14 -26 -23 -28 -12 -2 -15 1 -11
12 3 9 10 13 15 10 5 -3 9 2 9 11 0 9 -4 13 -10 10 -6 -3 -10 1 -10 10 0 9 4
14 9 11 5 -4 7 4 3 16 -3 12 -7 17 -10 10 -6 -18 -22 -4 -22 19 0 10 -3 19 -7
19 -5 0 -9 10 -9 23 -1 12 -5 39 -9 61 -6 28 -4 40 6 46 21 14 46 -16 54 -63z
m153 18 c-2 -19 -1 -35 3 -35 4 0 10 -25 14 -57 4 -31 12 -66 17 -79 8 -17 8
-27 -1 -37 -9 -11 -9 -21 0 -43 7 -16 13 -32 13 -36 3 -24 16 -15 16 11 0 19
-4 30 -10 26 -5 -3 -10 1 -10 9 0 8 5 18 10 21 6 4 8 11 5 16 -4 5 1 9 9 9 10
0 16 -9 16 -25 0 -22 2 -24 14 -13 10 9 11 17 4 26 -8 9 -3 12 21 12 31 0 32
-1 17 -22 -24 -34 -20 -77 9 -104 14 -13 25 -18 25 -11 0 7 12 -1 27 -18 14
-16 29 -30 32 -30 3 0 5 -4 3 -9 -2 -5 4 -6 13 -3 11 5 15 0 15 -18 0 -14 5
-25 10 -25 6 0 10 -11 10 -24 0 -16 7 -27 20 -31 11 -3 19 -9 18 -13 -5 -16
28 -72 42 -72 8 0 21 -9 28 -20 7 -11 19 -20 27 -20 8 0 14 -3 14 -7 -4 -23 5
-29 38 -30 29 -1 44 -8 64 -32 14 -17 32 -31 40 -31 9 0 10 -3 3 -8 -13 -8
-47 -72 -42 -78 3 -2 19 16 37 40 20 26 52 53 82 67 38 19 48 29 49 49 1 22 2
23 11 7 6 -10 8 -25 5 -33 -3 -8 -2 -14 3 -14 5 0 9 -12 9 -27 0 -29 -25 -66
-39 -58 -4 3 -10 1 -14 -5 -3 -5 -1 -10 6 -10 7 0 10 -2 7 -5 -3 -3 -12 -3
-21 1 -14 5 -12 12 13 49 17 24 30 46 30 49 0 13 -28 5 -41 -11 -10 -11 -10
-14 -1 -9 19 11 15 2 -23 -54 -20 -29 -34 -58 -32 -64 2 -6 -17 -16 -42 -23
l-46 -12 39 2 c61 3 53 -18 -11 -30 -64 -12 -78 -8 -49 13 13 9 15 14 6 14 -9
0 -8 6 5 20 19 21 8 29 -12 9 -6 -6 -1 11 13 37 13 27 24 52 24 57 0 12 -18 8
-33 -8 -8 -8 -17 -11 -21 -8 -7 8 -36 -29 -30 -39 2 -3 -11 -15 -28 -26 -46
-29 -91 -78 -84 -91 4 -6 -8 -20 -28 -32 -20 -12 -36 -25 -36 -29 0 -4 -11
-10 -23 -14 -13 -3 -42 -29 -64 -58 -22 -29 -46 -52 -53 -50 -8 2 -11 -4 -8
-16 3 -12 -2 -26 -13 -36 -24 -20 -33 -20 -25 0 3 8 2 12 -4 9 -6 -3 -10 -12
-10 -18 0 -12 -57 -43 -65 -35 -10 9 30 50 83 87 31 21 76 59 99 84 23 25 58
57 78 70 44 30 78 90 61 108 -8 9 -8 10 1 5 6 -3 14 -2 18 4 4 6 10 8 14 5 5
-2 17 5 27 18 19 22 19 22 -2 5 -19 -17 -21 -17 -36 1 -12 14 -13 22 -5 30 8
8 4 11 -14 12 -13 0 -18 3 -11 6 6 2 12 9 12 14 0 4 -7 6 -15 3 -10 -4 -15
-20 -15 -48 0 -22 -5 -48 -10 -56 -6 -10 -7 8 -4 52 2 36 0 69 -5 72 -5 4 -5
22 1 46 8 31 13 38 23 30 9 -8 17 -6 28 5 21 20 25 19 30 -7 4 -20 4 -19 6 5
1 21 -5 30 -24 37 -14 5 -28 17 -32 25 -5 14 -9 13 -31 -7 -25 -23 -22 -8 4
23 12 13 11 19 -1 35 -14 19 -14 19 -15 -1 0 -18 -5 -20 -36 -17 -25 3 -32 7
-23 13 10 6 3 9 -21 9 -19 0 -64 -14 -98 -30 -35 -17 -65 -30 -67 -30 -1 0 -8
14 -15 30 -14 33 -25 38 -34 15 -3 -8 -12 -12 -21 -9 -22 9 -20 70 3 83 9 6
12 11 6 11 -7 0 -15 7 -18 16 -5 14 -4 15 8 5 11 -9 15 -8 20 4 5 15 7 15 21
1 14 -14 18 -13 36 5 17 17 20 28 14 57 -4 21 -10 42 -15 47 -4 6 -10 24 -14
40 -4 17 -14 44 -21 60 -7 17 -22 51 -33 77 -11 25 -30 51 -41 57 -12 7 -21
17 -21 23 0 7 5 6 15 -2 8 -7 15 -9 15 -4 -1 13 -26 45 -31 39 -3 -2 -6 5 -6
16 -1 14 3 19 11 16 10 -4 12 1 9 14 -5 17 0 19 37 19 l42 0 -4 -35z m537 -52
c25 -32 45 -65 45 -73 0 -27 36 -20 53 10 22 36 21 46 -4 81 l-21 29 32 -2
c17 -1 34 -6 36 -10 3 -4 11 -8 17 -8 7 0 6 4 -3 10 -9 6 -10 10 -3 10 16 0
43 -28 43 -46 0 -8 4 -14 8 -14 4 0 15 -12 25 -27 37 -61 35 -60 57 -33 15 20
21 23 31 13 10 -10 10 -13 1 -13 -7 0 -12 -5 -12 -11 0 -8 4 -8 15 1 11 9 12
17 4 31 -11 21 -3 43 11 34 5 -3 12 0 16 6 4 8 3 9 -4 5 -18 -11 -14 2 10 34
18 25 29 30 65 30 24 0 43 -3 43 -7 0 -14 -153 -193 -165 -193 -8 0 -15 -10
-17 -22 -2 -15 -11 -24 -27 -26 -26 -4 -41 12 -41 45 0 14 -5 21 -13 18 -6 -3
-18 4 -25 16 -12 18 -12 23 0 31 10 8 10 9 -2 6 -8 -3 -27 -26 -41 -51 -37
-68 -47 -76 -65 -53 -10 14 -14 16 -14 5 0 -16 4 -21 -113 130 l-78 101 45 0
c44 0 48 -3 91 -57z m693 -40 c40 -54 81 -107 92 -118 29 -30 25 -34 -26 -33
-36 0 -48 5 -61 24 -14 22 -22 24 -100 24 l-84 0 18 25 c15 20 26 24 69 25
l52 0 -32 35 c-31 34 -56 45 -56 25 0 -5 -24 -43 -52 -84 l-53 -75 -47 -1
c-27 0 -48 2 -48 5 0 12 41 44 52 41 7 -1 10 -1 6 1 -5 3 -8 9 -8 15 0 17 133
177 142 172 4 -3 8 0 8 5 0 6 13 11 28 11 24 0 39 -15 100 -97z m448 82 c20
-13 24 -24 24 -65 0 -45 -3 -52 -26 -61 -15 -5 -36 -7 -48 -3 -11 4 2 -10 29
-31 28 -21 52 -42 55 -46 3 -5 17 -10 30 -11 25 -3 25 -2 21 65 -2 41 1 67 7
67 6 0 12 -5 14 -11 2 -5 23 -13 46 -16 l43 -6 -28 -13 c-38 -19 -65 -102 -47
-147 5 -14 8 -13 25 1 10 9 19 24 19 34 0 10 5 18 11 18 6 0 8 -7 5 -16 -5
-13 -2 -15 13 -11 35 9 4 -38 -32 -49 -56 -16 -73 -90 -18 -78 22 4 22 3 -6
-10 -44 -20 -42 -36 5 -31 l37 5 -33 -9 c-37 -10 -66 -31 -42 -31 11 0 11 -3
2 -12 -16 -16 -15 -48 1 -48 9 0 9 -2 1 -8 -18 -11 -17 -122 0 -122 8 0 17 -7
20 -16 5 -14 4 -15 -9 -4 -21 18 -26 10 -27 -44 -1 -50 -17 -75 -19 -29 -1 15
-2 33 -4 38 -1 6 -3 24 -4 40 -2 28 -3 29 -11 8 -12 -29 -34 -31 -25 -3 5 14
2 20 -9 20 -9 0 -16 -8 -16 -19 0 -10 -7 -22 -16 -25 -14 -5 -15 -4 -5 8 7 8
8 17 3 20 -10 6 -31 -15 -50 -49 -11 -20 -12 -20 -18 3 -3 12 -12 22 -19 22
-18 0 -30 39 -16 53 6 6 11 21 11 34 0 13 6 23 14 23 8 0 17 7 20 16 5 14 4
15 -9 4 -9 -7 -18 -10 -21 -7 -7 6 18 47 28 47 5 0 8 5 8 12 0 6 -9 3 -20 -7
-28 -25 -36 -12 -14 24 15 26 19 28 29 14 9 -13 12 -5 14 38 2 68 10 97 21 79
6 -9 12 1 21 31 15 54 29 72 29 39 0 -14 4 -20 8 -15 4 6 19 16 35 24 42 22
33 31 -33 31 -57 0 -63 2 -132 56 -40 31 -74 60 -76 65 -2 5 -10 9 -17 9 -8 0
-17 5 -20 10 -4 7 10 10 37 9 24 -1 62 -1 85 -1 39 2 42 4 39 25 -2 13 -10 21
-20 21 -9 -1 -16 3 -16 9 0 7 -4 7 -12 -1 -15 -15 -32 -16 -23 -2 3 6 2 10 -4
10 -5 0 -13 -4 -16 -10 -9 -14 -76 -9 -82 7 -8 20 -32 -16 -32 -47 0 -14 3
-18 6 -10 14 44 18 38 23 -40 3 -47 3 -91 1 -97 -2 -8 -20 -13 -42 -13 l-40 0
2 86 c2 61 6 87 16 91 7 3 13 10 13 15 0 6 -6 5 -15 -2 -13 -11 -15 -7 -15 23
l0 35 146 1 c117 1 151 -1 170 -14z m-649 -438 c12 -11 25 -33 28 -49 4 -16
13 -41 20 -55 10 -20 14 -22 17 -8 4 22 75 47 113 39 17 -3 39 -16 50 -29 11
-12 34 -29 51 -38 17 -9 49 -31 72 -51 l42 -34 37 18 c32 15 74 17 59 3 -3 -3
-1 -16 4 -29 8 -20 6 -24 -8 -24 -50 0 -55 -54 -9 -98 l34 -33 28 23 c23 18
41 22 95 22 71 -1 102 -10 80 -24 -7 -4 -24 -3 -39 3 -43 16 -100 0 -138 -39
-27 -28 -33 -31 -33 -15 0 10 -6 24 -14 30 -11 9 -15 6 -18 -14 -4 -17 0 -29
11 -35 10 -6 11 -10 4 -10 -7 0 -13 -7 -13 -15 0 -13 4 -14 21 -5 19 11 20 10
9 -10 -8 -15 -8 -20 -1 -16 6 4 15 -4 21 -20 6 -15 27 -45 46 -67 37 -41 84
-129 84 -159 0 -21 16 -32 24 -16 3 7 4 -10 1 -38 -4 -40 -2 -53 10 -58 20 -7
19 -26 -1 -26 -9 0 -12 -5 -8 -12 5 -9 2 -9 -9 1 -11 9 -17 28 -17 55 0 22
-10 61 -21 86 -11 25 -22 54 -25 64 -2 11 -9 24 -15 30 -9 8 -10 8 -5 -1 4 -7
2 -13 -3 -13 -6 0 -11 4 -11 9 0 5 -7 17 -16 25 -14 15 -14 16 2 16 11 0 5 10
-21 35 -21 19 -42 32 -47 29 -4 -3 -21 2 -36 12 -27 15 -31 15 -60 0 -18 -9
-32 -14 -32 -11 0 2 18 14 40 25 31 16 40 27 46 55 4 25 2 39 -10 50 -9 9 -16
13 -16 8 0 -5 5 -14 12 -21 6 -6 8 -15 3 -19 -4 -5 -10 -2 -12 5 -3 6 -9 12
-14 12 -6 0 -7 -4 -4 -10 3 -5 -3 -10 -14 -10 -15 0 -21 6 -21 24 0 26 -43 61
-61 50 -7 -4 -7 1 0 15 11 19 14 20 27 6 19 -19 30 -20 15 -1 -22 27 4 24 47
-5 23 -16 42 -27 42 -25 0 3 -12 28 -27 58 -18 35 -28 47 -31 36 -2 -10 -7
-18 -12 -18 -5 0 -7 7 -4 15 4 8 -12 33 -40 61 -25 25 -46 51 -46 58 -1 26
-17 38 -37 28 -13 -7 -24 -7 -34 0 -12 8 -11 9 3 5 29 -10 28 6 -2 24 -17 11
-30 22 -30 27 0 4 -17 9 -37 10 -29 1 -33 -1 -18 -7 11 -5 23 -7 26 -5 4 2 12
-3 19 -11 10 -12 9 -16 -5 -21 -10 -4 -21 -1 -26 7 -8 13 -13 6 -10 -13 0 -5
-9 -8 -21 -9 -13 0 -17 -3 -10 -6 10 -4 10 -8 1 -19 -6 -8 -15 -11 -20 -8 -5
3 -9 -13 -9 -35 0 -22 -4 -43 -10 -46 -6 -3 -9 19 -8 57 1 55 -1 63 -16 60
-10 -2 -15 1 -12 7 4 5 -2 15 -11 21 -12 8 -13 10 -3 7 13 -4 15 2 12 30 -3
26 -7 31 -14 22 -7 -11 -8 -9 -6 6 3 23 -30 65 -50 65 -7 0 -10 5 -7 10 7 12
20 6 52 -23z m-267 -211 c0 -14 72 -46 103 -46 10 0 17 8 17 19 0 21 15 36 23
24 3 -5 7 -26 9 -48 3 -38 1 -40 -25 -41 -23 -1 -25 1 -15 14 11 12 8 14 -17
8 -19 -4 -41 -1 -58 8 -25 14 -26 13 -18 -2 5 -9 7 -33 4 -52 -3 -27 -2 -31 6
-20 8 12 11 7 11 -22 0 -26 7 -45 25 -63 14 -14 22 -25 17 -25 -5 0 -19 11
-32 25 -23 24 -47 35 -35 15 3 -5 2 -10 -3 -10 -12 0 -19 27 -27 100 -3 30 -8
72 -10 93 -3 28 -1 37 10 37 8 0 15 -6 15 -14z m543 -203 c-4 -11 -3 -14 5 -9
8 4 10 2 6 -7 -3 -9 -13 -13 -27 -9 -13 3 -18 1 -14 -4 5 -5 12 -9 15 -10 4 0
15 -4 25 -9 16 -7 16 -9 2 -31 -19 -30 -19 -40 0 -24 12 10 15 10 15 -2 0 -8
-6 -15 -12 -15 -43 -3 -66 -8 -62 -14 2 -4 13 -5 23 -2 10 3 22 0 25 -5 3 -6
-2 -8 -13 -5 -25 6 -35 -11 -16 -27 8 -7 15 -19 15 -27 0 -17 -25 -5 -86 41
l-42 31 30 38 c16 20 34 37 40 37 7 0 7 -5 -1 -13 -11 -14 -5 -27 12 -27 5 0
7 12 4 28 -5 22 0 32 26 54 38 33 38 33 30 11z m847 -1568 c6 -8 10 -22 7 -32
-4 -14 -5 -13 -6 4 -1 15 -9 25 -26 29 -44 11 -51 -6 -51 -113 l1 -98 30 -3
c18 -2 33 2 40 12 9 12 12 6 11 -30 l-1 -45 -73 -29 -72 -28 -63 23 c-34 13
-70 26 -79 29 -16 5 -18 20 -18 139 0 90 4 137 12 145 19 19 272 17 288 -3z
m-959 -167 l0 -23 11 23 c9 18 19 22 52 21 23 -1 31 -4 19 -6 -14 -3 -23 -11
-22 -21 0 -11 3 -12 6 -4 7 18 23 15 23 -5 0 -15 2 -15 19 1 22 20 52 18 59
-2 3 -9 -3 -13 -19 -10 -16 2 -25 -3 -27 -15 -3 -16 0 -18 20 -12 24 8 38 22
38 41 0 5 22 11 50 11 40 1 52 -2 60 -18 6 -10 7 -19 3 -19 -14 0 21 -20 36
-20 8 0 4 8 -10 20 -21 17 -22 21 -9 30 23 15 55 8 54 -13 -2 -23 1 -22 34 13
28 28 50 41 37 21 -10 -18 16 -23 34 -7 23 21 42 21 34 -1 -6 -17 -5 -17 14 0
19 16 21 17 27 1 3 -9 1 -22 -5 -30 -6 -7 -8 -23 -4 -34 6 -18 3 -21 -12 -18
-13 3 -17 12 -16 31 1 15 -2 25 -8 22 -5 -4 -9 -17 -9 -31 0 -15 -6 -24 -15
-24 -8 0 -15 7 -15 15 0 9 -9 6 -27 -12 -16 -14 -23 -28 -17 -30 19 -6 4 -53
-17 -53 -22 0 -26 28 -5 36 9 3 12 12 8 22 -9 25 -30 44 -36 33 -3 -5 -37 -9
-75 -9 -52 1 -71 5 -75 15 -4 8 -4 19 0 24 3 5 1 9 -5 9 -6 0 -13 -11 -17 -25
-6 -25 -24 -35 -24 -13 0 9 -3 9 -12 0 -18 -18 -55 -15 -67 6 -10 16 -10 16
-11 0 0 -10 -6 -18 -14 -18 -9 0 -12 9 -10 28 3 25 3 26 -4 3 -9 -30 -32 -40
-32 -14 -1 17 -1 17 -11 1 -14 -25 -29 -22 -30 5 l-2 22 -4 -22 c-3 -14 -12
-23 -22 -23 -16 0 -16 5 -7 50 8 43 13 50 33 50 17 0 23 -6 24 -22z"/>
</g>
</svg>
